<svg width="1440" height="217" viewBox="0 0 1440 217" fill="none" xmlns="http://www.w3.org/2000/svg">
<path d="M257.147 50C253.133 50.2711 248.441 52.7795 245.707 56.046C243.213 59.0092 241.161 63.4104 241.961 67.6876C246.347 67.8209 250.879 65.2527 253.504 61.9311C255.961 58.8392 257.82 54.4656 257.147 50Z" fill="#828282"/>
<path d="M272.9 75.0148C269.184 70.3815 263.962 67.6926 259.031 67.6926C252.521 67.6926 249.767 70.792 245.244 70.792C240.581 70.792 237.038 67.7016 231.408 67.7016C225.878 67.7016 219.989 71.0627 216.256 76.8104C211.007 84.9041 211.905 100.122 220.411 113.083C223.455 117.721 227.52 122.936 232.837 122.981C237.569 123.027 238.902 119.963 245.312 119.932C251.723 119.896 252.939 123.022 257.661 122.972C262.983 122.932 267.27 117.153 270.314 112.515C272.496 109.19 273.308 107.516 275 103.762C262.692 99.1019 260.719 81.6964 272.9 75.0148Z" fill="#828282"/>
<path d="M402.251 64.0636H392.32C391.836 64.0636 391.443 64.4535 391.443 64.9345V90.2775C391.443 90.2775 391.225 93.1857 388.589 93.1857C385.954 93.1857 385.766 90.2775 385.766 90.2775V84.4636C385.766 83.9826 385.373 83.5926 384.889 83.5926H375.877C375.393 83.5926 375 83.9826 375 84.4636V91.8087C375 91.8087 375.565 101.949 388.861 101.949C402.666 101.949 403.084 89.4623 403.084 89.4623L403.128 64.9361C403.129 64.4544 402.736 64.0636 402.251 64.0636Z" fill="#828282"/>
<path fill-rule="evenodd" clip-rule="evenodd" d="M431.99 88.3374C431.996 88.7048 431.702 89.0076 431.332 89.0076L415.128 89.0074C414.729 89.0074 414.416 89.358 414.476 89.7495C414.911 92.5843 416.459 95.2076 419.118 95.2076C420.462 95.2076 421.919 94.6254 422.751 93.5691C422.875 93.4119 423.064 93.3202 423.265 93.3202H430.54C431.008 93.3202 431.321 93.7893 431.15 94.221C429.097 99.3976 424.343 101.814 419.119 101.814C411.497 101.814 405.715 96.6911 405.715 87.6579C405.715 79.8381 410.709 72.6504 418.33 72.6504C427.588 72.6504 431.813 78.2436 431.99 88.3374ZM423.139 82.8895C422.833 80.8025 421.24 79.1751 419.118 79.1751C415.159 79.1751 414.608 82.4734 414.532 83.3903C414.521 83.5173 414.622 83.6244 414.75 83.6244H422.486C422.881 83.6244 423.196 83.2786 423.139 82.8895Z" fill="#828282"/>
<path fill-rule="evenodd" clip-rule="evenodd" d="M459.811 88.3374C459.817 88.7048 459.523 89.0076 459.153 89.0076L442.949 89.0074C442.55 89.0074 442.237 89.358 442.297 89.7495C442.732 92.5843 444.279 95.2076 446.939 95.2076C448.282 95.2076 449.739 94.6254 450.571 93.5691C450.695 93.4119 450.885 93.3202 451.086 93.3202H458.361C458.828 93.3202 459.141 93.7893 458.97 94.221C456.918 99.3976 452.164 101.814 446.939 101.814C439.317 101.814 433.536 96.6911 433.536 87.6579C433.536 79.8381 438.529 72.6504 446.15 72.6504C455.409 72.6504 459.634 78.2436 459.811 88.3374ZM450.959 82.8895C450.653 80.8025 449.061 79.1751 446.939 79.1751C442.979 79.1751 442.429 82.4734 442.352 83.3903C442.342 83.5173 442.443 83.6244 442.571 83.6244H450.306C450.702 83.6244 451.016 83.2786 450.959 82.8895Z" fill="#828282"/>
<path fill-rule="evenodd" clip-rule="evenodd" d="M469.58 76.2911C469.58 76.2911 471.297 72.6511 476.918 72.6511C478.833 72.6511 487.246 73.0861 487.246 86.9417C487.246 100.798 476.783 100.963 476.783 100.963C476.783 100.963 471.938 101.244 469.851 97.3234V108.265C469.851 108.626 469.557 108.918 469.194 108.918H461.134C460.771 108.918 460.476 108.626 460.476 108.265V73.9771C460.476 73.6163 460.771 73.3239 461.134 73.3239H468.923C469.286 73.3239 469.58 73.6163 469.58 73.9771V76.2911ZM469.434 86.9171C469.434 90.3193 470.534 93.0779 473.725 93.0779C476.916 93.0779 478.016 90.3193 478.016 86.9171C478.016 83.5127 476.744 80.7541 473.725 80.7541C470.705 80.7541 469.434 83.5125 469.434 86.9171Z" fill="#828282"/>
<path d="M397.483 64.0636L397.438 89.4621C397.438 89.4621 397.075 100.245 385.943 101.769C386.84 101.886 387.811 101.949 388.861 101.949C402.666 101.949 403.084 89.4623 403.084 89.4623L403.128 64.9361C403.129 64.4544 402.736 64.0636 402.251 64.0636H397.483Z" fill="#828282"/>
<path d="M416.295 101.565C417.201 101.729 418.144 101.814 419.119 101.814C424.343 101.814 429.097 99.3976 431.15 94.221C431.321 93.7893 431.008 93.3202 430.54 93.3202H425.824C424.305 98.1077 420.635 100.779 416.295 101.565Z" fill="#828282"/>
<path d="M426.35 89.0076H431.332C431.702 89.0076 431.996 88.7048 431.99 88.3374C431.813 78.2436 427.588 72.6504 418.33 72.6504C417.488 72.6504 416.68 72.7428 415.905 72.9095C423.105 74.1433 426.35 79.7715 426.35 89.0076Z" fill="#828282"/>
<path d="M454.17 89.0076H459.153C459.523 89.0076 459.817 88.7048 459.811 88.3374C459.634 78.2436 455.409 72.6504 446.15 72.6504C445.308 72.6504 444.5 72.7428 443.726 72.9095C450.925 74.1433 454.17 79.7715 454.17 89.0076Z" fill="#828282"/>
<path d="M444.115 101.565C445.021 101.729 445.965 101.814 446.939 101.814C452.164 101.814 456.918 99.3976 458.97 94.221C459.141 93.7893 458.828 93.3202 458.361 93.3202H453.645C452.126 98.1077 448.455 100.779 444.115 101.565Z" fill="#828282"/>
<path d="M476.918 72.6511C475.806 72.6511 474.85 72.7948 474.027 73.0232C477.188 73.912 481.6 76.9069 481.6 86.9417C481.6 96.3749 476.751 99.4619 473.655 100.472C475.319 101.046 476.783 100.963 476.783 100.963C476.783 100.963 487.246 100.798 487.246 86.9417C487.246 73.0861 478.833 72.6511 476.918 72.6511Z" fill="#828282"/>
<path d="M666.93 79.2321V67.7938H661.143V79.2321H649.569V84.9512H661.143V96.3895H666.93V84.9512H678.504V79.2321H666.93Z" fill="#828282"/>
<path d="M615.069 80.9918V91.9902H630.811C628.513 98.3912 622.325 102.989 615.069 102.989C605.865 102.989 598.375 95.5866 598.375 86.491C598.375 77.3953 605.865 69.9934 615.069 69.9934C619.058 69.9934 622.898 71.4067 625.881 73.9748L633.192 65.6821C628.184 61.3707 621.752 58.9951 615.069 58.9951C599.727 58.9951 587.246 71.3297 587.246 86.491C587.246 101.652 599.727 113.987 615.069 113.987C630.41 113.987 642.891 101.652 642.891 86.491V80.9918H615.069Z" fill="#828282"/>
<path d="M841.848 79.9449L815.418 86.7604C808.557 88.4313 802.556 90.6569 796.773 88.7086C788.911 85.3668 789.052 76.6724 794.913 67.4233C784.551 75.8404 765.905 102.756 791.123 105.473C794.335 105.889 800.055 104.78 806.268 102.208L834.846 90.6638L891.214 67.978L841.848 79.9449Z" fill="#828282"/>
<path fill-rule="evenodd" clip-rule="evenodd" d="M1065.1 72.2735H1052.07C1038.27 60.0535 1018.04 60.0535 1004.24 72.2735H991.214C991.214 72.2735 994.169 75.9395 995.369 79.3705C992.783 82.5665 991.214 86.6085 991.214 91.0735C991.214 101.46 999.479 109.873 1009.68 109.873C1015.73 109.873 1021.09 106.865 1024.46 102.259L1028.34 109.873L1031.89 102.306C1035.27 106.865 1040.58 109.873 1046.62 109.873C1056.83 109.873 1065.1 101.46 1065.1 91.0735C1065.1 86.6085 1063.53 82.5665 1060.94 79.3705C1062.14 75.9395 1065.1 72.2735 1065.1 72.2735ZM1009.68 105.173C1002.06 105.173 995.831 98.8285 995.831 91.0735C995.831 83.3185 1002.06 76.9735 1009.68 76.9735C1017.3 76.9735 1023.54 83.3185 1023.54 91.0735C1023.54 98.8285 1017.3 105.173 1009.68 105.173ZM1032.77 91.0735C1032.77 98.8285 1039.01 105.173 1046.62 105.173C1054.24 105.173 1060.48 98.8285 1060.48 91.0735C1060.48 83.3185 1054.24 76.9735 1046.62 76.9735C1039.01 76.9735 1032.77 83.3185 1032.77 91.0735Z" fill="#828282"/>
<path fill-rule="evenodd" clip-rule="evenodd" d="M1000.45 91.0735C1000.45 85.8894 1004.59 81.6735 1009.68 81.6735C1014.78 81.6735 1018.92 85.8894 1018.92 91.0735C1018.92 96.2576 1014.78 100.473 1009.68 100.473C1004.59 100.473 1000.45 96.2576 1000.45 91.0735ZM1005.07 91.0735C1005.07 93.6632 1007.14 95.7735 1009.68 95.7735C1012.23 95.7735 1014.3 93.6632 1014.3 91.0735C1014.3 88.4838 1012.23 86.3735 1009.68 86.3735C1007.14 86.3735 1005.07 88.4838 1005.07 91.0735Z" fill="#828282"/>
<path fill-rule="evenodd" clip-rule="evenodd" d="M1037.39 91.0735C1037.39 85.8894 1041.53 81.6735 1046.62 81.6735C1051.72 81.6735 1055.86 85.8894 1055.86 91.0735C1055.86 96.2576 1051.72 100.473 1046.62 100.473C1041.53 100.473 1037.39 96.2576 1037.39 91.0735ZM1042.01 91.0735C1042.01 93.6632 1044.08 95.7735 1046.62 95.7735C1049.17 95.7735 1051.24 93.6632 1051.24 91.0735C1051.24 88.4838 1049.17 86.3735 1046.62 86.3735C1044.08 86.3735 1042.01 88.4838 1042.01 91.0735Z" fill="#828282"/>
<path d="M1009.68 93.4235C1010.96 93.4235 1011.99 92.3714 1011.99 91.0735C1011.99 89.7756 1010.96 88.7235 1009.68 88.7235C1008.41 88.7235 1007.38 89.7756 1007.38 91.0735C1007.38 92.3714 1008.41 93.4235 1009.68 93.4235Z" fill="#828282"/>
<path d="M1046.62 93.4235C1047.9 93.4235 1048.93 92.3714 1048.93 91.0735C1048.93 89.7756 1047.9 88.7235 1046.62 88.7235C1045.35 88.7235 1044.32 89.7756 1044.32 91.0735C1044.32 92.3714 1045.35 93.4235 1046.62 93.4235Z" fill="#828282"/>
<path d="M1196.04 55.5477C1179.04 55.5477 1165.1 69.4952 1165.1 86.491C1165.1 100.994 1175.27 114.169 1188.79 117.434V107.197C1187.45 107.49 1186.21 107.499 1184.85 107.097C1183.02 106.557 1181.54 105.339 1180.43 103.482C1179.73 102.295 1178.48 101.009 1177.19 101.104L1176.87 97.4918C1179.68 97.251 1182.11 99.2043 1183.55 101.629C1184.19 102.708 1184.93 103.34 1185.88 103.619C1186.79 103.889 1187.78 103.76 1188.92 103.355C1189.21 101.062 1190.26 100.203 1191.05 98.9946V98.9927C1182.99 97.7906 1179.78 93.5148 1178.51 90.1398C1176.82 85.6586 1177.72 80.0602 1180.71 76.5223C1180.77 76.4534 1180.88 76.273 1180.83 76.147C1179.46 72.0095 1181.13 68.5868 1181.2 68.2237C1182.78 68.6912 1183.03 67.7535 1188.06 70.8088L1188.93 71.331C1189.29 71.5477 1189.18 71.424 1189.54 71.3966C1191.64 70.8262 1193.86 70.5113 1196.04 70.483C1198.24 70.5113 1200.43 70.8262 1202.62 71.4197L1202.9 71.4481C1202.88 71.4443 1202.98 71.4301 1203.15 71.3291C1209.43 67.524 1209.2 68.7676 1210.89 68.2199C1210.95 68.5835 1212.6 72.0619 1211.24 76.147C1211.06 76.7098 1216.69 81.8643 1213.57 90.1384C1212.29 93.5148 1209.08 97.7906 1201.02 98.9927V98.9946C1202.06 100.569 1203.3 101.407 1203.29 104.655V117.434C1216.8 114.169 1226.98 100.994 1226.98 86.491C1226.98 69.4952 1213.03 55.5477 1196.04 55.5477Z" fill="#828282"/>
</svg>
